<svg width="20" height="20" fill="none" xmlns="http://www.w3.org/2000/svg"><path d="M5.566 10.625H5v1.21h.566a.606.606 0 000-1.21zM2.93 17.031h14.14V20H2.93v-2.969zM17.07 4.688h-4.687V0H2.93v7.031h14.14V4.688z" fill="#fff"/><path d="M13.555.83v2.686h2.687L13.555.829zm-3.867 9.795v2.969c.646 0 1.171-.526 1.171-1.172v-.625c0-.646-.525-1.172-1.171-1.172z" fill="#fff"/><path d="M1.563 8.203v7.656h16.875V8.203H1.563zm4.003 4.805H5v1.758H3.828V9.453h1.738c.98 0 1.778.797 1.778 1.777a1.78 1.78 0 01-1.778 1.778zm6.465-.586a2.346 2.346 0 01-2.344 2.344h-1.17V9.453h1.171a2.346 2.346 0 012.344 2.344v.625zm4.18-1.797h-1.758v1.348h1.172v1.171h-1.172v1.622h-1.172V9.453h2.93v1.172z" fill="#fff"/></svg>