<svg width="21" height="21" fill="none" xmlns="http://www.w3.org/2000/svg"><g clip-path="url(#clip0)"><path d="M20.535 5.188l.027.171a2.662 2.662 0 00-1.81-1.848l-.018-.004c-1.637-.444-8.225-.444-8.225-.444s-6.571-.01-8.225.444A2.663 2.663 0 00.46 5.341l-.004.018c-.612 3.195-.616 7.034.027 10.454l-.027-.173c.254.9.939 1.595 1.81 1.848l.018.004c1.635.445 8.225.445 8.225.445s6.57 0 8.225-.445a2.663 2.663 0 001.823-1.834l.005-.018c.278-1.486.437-3.196.437-4.942v-.394c0-1.748-.16-3.458-.465-5.116zM8.407 13.695V7.313l5.483 3.196-5.483 3.186z" fill="#fff"/></g><defs><clipPath id="clip0"><path fill="#fff" d="M0 0h21v21H0z"/></clipPath></defs></svg>