<svg width="21" height="21" viewBox="0 0 21 21" fill="none" xmlns="http://www.w3.org/2000/svg">
<g clip-path="url(#clip0)">
<path d="M20.5354 5.18789L20.5616 5.35939C20.3079 4.45901 19.6228 3.76426 18.7521 3.51139L18.7338 3.50701C17.0966 3.06251 10.5088 3.06251 10.5088 3.06251C10.5088 3.06251 3.93751 3.05376 2.28376 3.50701C1.39651 3.76426 0.710513 4.45901 0.461138 5.34101L0.456763 5.35939C-0.154862 8.55401 -0.159237 12.3926 0.483888 15.813L0.456763 15.6398C0.710513 16.5401 1.39564 17.2349 2.26626 17.4878L2.28464 17.4921C3.92001 17.9375 10.5096 17.9375 10.5096 17.9375C10.5096 17.9375 17.08 17.9375 18.7346 17.4921C19.6228 17.2349 20.3088 16.5401 20.5581 15.6581L20.5625 15.6398C20.8408 14.154 21 12.4443 21 10.6978C21 10.6339 21 10.5691 20.9991 10.5044C21 10.4449 21 10.374 21 10.3031C21 8.55576 20.8408 6.84601 20.5354 5.18789ZM8.40701 13.6946V7.31326L13.8898 10.5088L8.40701 13.6946Z" fill="white"/>
</g>
<defs>
<clipPath id="clip0">
<rect width="21" height="21" fill="white"/>
</clipPath>
</defs>
</svg>
