<svg width="20" height="20" viewBox="0 0 20 20" fill="none" xmlns="http://www.w3.org/2000/svg">
<path d="M5.56641 10.625H5V11.8359H5.56641C5.90027 11.8359 6.17188 11.5643 6.17188 11.2305C6.17188 10.8966 5.90027 10.625 5.56641 10.625Z" fill="white"/>
<path d="M2.92969 17.0312H17.0703V20H2.92969V17.0312Z" fill="white"/>
<path d="M17.0703 4.6875H12.3828V0H2.92969V7.03125H17.0703V4.6875Z" fill="white"/>
<path d="M13.5547 0.829102V3.51602H16.2416L13.5547 0.829102Z" fill="white"/>
<path d="M9.6875 10.625V13.5938C10.3337 13.5938 10.8594 13.0681 10.8594 12.4219V11.7969C10.8594 11.1507 10.3337 10.625 9.6875 10.625Z" fill="white"/>
<path d="M1.5625 8.20312V15.8594H18.4375V8.20312H1.5625ZM5.56641 13.0078H5V14.7656H3.82812V9.45312H5.56641C6.54648 9.45312 7.34375 10.2504 7.34375 11.2305C7.34375 12.2105 6.54648 13.0078 5.56641 13.0078ZM12.0312 12.4219C12.0312 13.7143 10.9799 14.7656 9.6875 14.7656H8.51562V9.45312H9.6875C10.9799 9.45312 12.0312 10.5045 12.0312 11.7969V12.4219ZM16.2109 10.625H14.4531V11.9727H15.625V13.1445H14.4531V14.7656H13.2812V9.45312H16.2109V10.625Z" fill="white"/>
</svg>
